<?xml version="1.0" encoding="UTF-8" standalone="no"?>
<svg
   xmlns:dc="http://purl.org/dc/elements/1.1/"
   xmlns:cc="http://creativecommons.org/ns#"
   xmlns:rdf="http://www.w3.org/1999/02/22-rdf-syntax-ns#"
   xmlns:svg="http://www.w3.org/2000/svg"
   xmlns="http://www.w3.org/2000/svg"
   xmlns:sodipodi="http://sodipodi.sourceforge.net/DTD/sodipodi-0.dtd"
   xmlns:inkscape="http://www.inkscape.org/namespaces/inkscape"
   width="800px"
   height="220px"
   viewBox="0 0 800 220"
   version="1.1"
   id="SVGRoot"
   sodipodi:docname="L&amp;H_Full_Logo.svg"
   inkscape:version="1.0.2-2 (e86c870879, 2021-01-15)">
  <defs
     id="defs125" />
  <sodipodi:namedview
     id="base"
     pagecolor="#ffffff"
     bordercolor="#666666"
     borderopacity="1.0"
     inkscape:pageopacity="0.0"
     inkscape:pageshadow="2"
     inkscape:zoom="0.98994949"
     inkscape:cx="355.1988"
     inkscape:cy="298.82885"
     inkscape:document-units="px"
     inkscape:current-layer="layer1"
     inkscape:document-rotation="0"
     showgrid="false"
     inkscape:window-width="1264"
     inkscape:window-height="967"
     inkscape:window-x="410"
     inkscape:window-y="22"
     inkscape:window-maximized="0" />
  <metadata
     id="metadata128">
    <rdf:RDF>
      <cc:Work
         rdf:about="">
        <dc:format>image/svg+xml</dc:format>
        <dc:type
           rdf:resource="http://purl.org/dc/dcmitype/StillImage" />
        <dc:title></dc:title>
      </cc:Work>
    </rdf:RDF>
  </metadata>
  <g
     inkscape:label="레이어 1"
     inkscape:groupmode="layer"
     id="layer1">
    <g
       id="g24"
       transform="translate(-33.055787,-197.68702)">
      <path
         d="m 42.945,373.134 v 36.071 h 12.36 v 5.959 H 36.604 v -42.03 z"
         id="path2" />
      <path
         d="m 58.11,377.625 c 0,-1.069 0.392,-1.994 1.171,-2.776 0.779,-0.778 1.715,-1.171 2.803,-1.171 1.106,0 2.05,0.393 2.831,1.171 0.78,0.763 1.171,1.698 1.171,2.805 0,1.107 -0.391,2.052 -1.171,2.832 -0.762,0.778 -1.697,1.169 -2.802,1.169 -1.108,0 -2.052,-0.391 -2.832,-1.169 -0.779,-0.781 -1.171,-1.736 -1.171,-2.861 z m 7.051,11.025 v 26.514 H 59.037 V 388.65 Z"
         id="path4" />
      <path
         d="m 78.146,394.369 v 20.795 h -6.15 v -20.795 h -2.177 v -5.719 h 2.177 v -10.234 c 0,-3.339 0.579,-5.699 1.742,-7.08 1.596,-1.921 3.92,-2.884 6.971,-2.884 1.088,0 2.458,0.317 4.109,0.952 v 6.262 l -0.625,-0.327 c -1.326,-0.671 -2.415,-1.007 -3.268,-1.007 -1.088,0 -1.823,0.39 -2.205,1.17 -0.379,0.762 -0.573,2.232 -0.573,4.41 v 8.738 h 6.671 v 5.719 z"
         id="path6" />
      <path
         d="M 112.23,403.352 H 93.228 c 0.162,2.176 0.871,3.912 2.124,5.199 1.251,1.271 2.858,1.904 4.818,1.904 1.524,0 2.786,-0.361 3.784,-1.088 0.98,-0.725 2.096,-2.07 3.349,-4.029 l 5.17,2.885 c -0.797,1.363 -1.641,2.527 -2.531,3.498 -0.888,0.973 -1.842,1.77 -2.858,2.396 -1.016,0.627 -2.115,1.086 -3.293,1.375 -1.179,0.291 -2.46,0.436 -3.839,0.436 -3.957,0 -7.131,-1.27 -9.527,-3.811 -2.396,-2.561 -3.593,-5.953 -3.593,-10.184 0,-4.191 1.162,-7.582 3.484,-10.18 2.343,-2.557 5.445,-3.84 9.31,-3.84 3.904,0 6.988,1.244 9.257,3.73 2.25,2.471 3.375,5.891 3.375,10.264 z m -6.289,-5.01 c -0.855,-3.268 -2.913,-4.9 -6.181,-4.9 -0.743,0 -1.441,0.113 -2.096,0.34 -0.652,0.229 -1.248,0.555 -1.782,0.98 -0.536,0.426 -0.993,0.941 -1.375,1.541 -0.382,0.598 -0.671,1.277 -0.872,2.039 z"
         id="path8" />
      <path
         d="m 151.598,391.781 7.566,9.148 0.246,-0.273 c 0.815,-0.889 1.588,-1.762 2.313,-2.613 0.727,-0.854 1.425,-1.715 2.096,-2.586 l 4.139,4.244 c -0.508,0.729 -1.175,1.572 -2.001,2.533 -0.826,0.963 -1.808,2.07 -2.953,3.322 l 7.786,9.607 h -7.896 l -4.191,-5.143 c -3.847,3.975 -7.85,5.961 -12.005,5.961 -3.722,0 -6.878,-1.189 -9.474,-3.564 -2.54,-2.396 -3.811,-5.355 -3.811,-8.877 0,-4.191 2.013,-7.676 6.043,-10.453 l 2.75,-1.879 c 0.035,-0.018 0.099,-0.061 0.19,-0.135 0.09,-0.074 0.216,-0.172 0.379,-0.299 -2.775,-2.959 -4.166,-5.871 -4.166,-8.74 0,-2.83 0.928,-5.135 2.778,-6.914 1.888,-1.779 4.32,-2.666 7.296,-2.666 2.886,0 5.272,0.859 7.16,2.584 1.888,1.725 2.832,3.904 2.832,6.535 0,1.814 -0.519,3.456 -1.551,4.928 -1.018,1.47 -2.86,3.229 -5.526,5.28 z m -5.036,3.567 -0.355,0.246 c -2.594,1.797 -4.363,3.24 -5.307,4.326 -0.925,1.09 -1.388,2.242 -1.388,3.457 0,1.744 0.698,3.34 2.097,4.791 1.45,1.4 3.048,2.098 4.79,2.098 2.45,0 5.273,-1.607 8.465,-4.818 z m 1.36,-8.032 0.516,-0.381 c 0.89,-0.671 1.626,-1.257 2.207,-1.756 0.579,-0.499 0.997,-0.92 1.253,-1.265 0.543,-0.673 0.816,-1.499 0.816,-2.478 0,-1.107 -0.372,-2.006 -1.116,-2.695 -0.745,-0.69 -1.743,-1.035 -2.996,-1.035 -1.143,0 -2.104,0.354 -2.885,1.063 -0.78,0.67 -1.17,1.533 -1.17,2.586 0,1.233 0.49,2.45 1.469,3.648 l 1.58,1.904 c 0.054,0.093 0.163,0.23 0.326,0.409 z"
         id="path10" />
      <path
         d="m 189.628,369.188 h 6.125 v 21.668 c 2.178,-1.959 4.582,-2.941 7.214,-2.941 2.994,0 5.389,0.975 7.187,2.914 1.526,1.689 2.287,4.383 2.287,8.086 v 16.25 h -6.125 v -15.678 c 0,-2.123 -0.378,-3.662 -1.129,-4.615 -0.753,-0.953 -1.966,-1.43 -3.635,-1.43 -2.142,0 -3.648,0.664 -4.518,1.988 -0.855,1.342 -1.28,3.646 -1.28,6.914 v 12.82 h -6.125 v -45.976 z"
         id="path12" />
      <path
         d="m 243.232,403.352 h -19.003 c 0.163,2.176 0.872,3.912 2.125,5.199 1.251,1.271 2.857,1.904 4.816,1.904 1.525,0 2.787,-0.361 3.784,-1.088 0.982,-0.725 2.096,-2.07 3.351,-4.029 l 5.17,2.885 c -0.797,1.363 -1.642,2.527 -2.532,3.498 -0.888,0.973 -1.842,1.77 -2.858,2.396 -1.016,0.627 -2.113,1.086 -3.293,1.375 -1.179,0.291 -2.459,0.436 -3.839,0.436 -3.957,0 -7.13,-1.27 -9.525,-3.811 -2.396,-2.561 -3.593,-5.953 -3.593,-10.184 0,-4.191 1.162,-7.582 3.484,-10.18 2.342,-2.557 5.443,-3.84 9.31,-3.84 3.902,0 6.988,1.244 9.255,3.73 2.251,2.471 3.376,5.891 3.376,10.264 z m -6.289,-5.01 c -0.855,-3.268 -2.914,-4.9 -6.181,-4.9 -0.744,0 -1.442,0.113 -2.096,0.34 -0.653,0.229 -1.248,0.555 -1.782,0.98 -0.538,0.426 -0.994,0.941 -1.376,1.541 -0.382,0.598 -0.671,1.277 -0.871,2.039 z"
         id="path14" />
      <path
         d="m 268.359,388.65 h 6.151 v 26.514 h -6.151 v -2.775 c -2.524,2.361 -5.238,3.539 -8.141,3.539 -3.665,0 -6.697,-1.324 -9.092,-3.975 -2.376,-2.703 -3.565,-6.08 -3.565,-10.125 0,-3.977 1.188,-7.289 3.565,-9.938 2.379,-2.65 5.354,-3.977 8.929,-3.977 3.085,0 5.855,1.273 8.305,3.813 v -3.076 z m -14.538,13.178 c 0,2.539 0.681,4.607 2.042,6.205 1.397,1.613 3.157,2.422 5.282,2.422 2.268,0 4.101,-0.777 5.498,-2.34 1.397,-1.613 2.096,-3.666 2.096,-6.154 0,-2.482 -0.698,-4.535 -2.096,-6.15 -1.396,-1.578 -3.211,-2.369 -5.443,-2.369 -2.106,0 -3.866,0.799 -5.281,2.396 -1.398,1.615 -2.098,3.609 -2.098,5.99 z"
         id="path16" />
      <path
         d="m 287.252,369.188 v 45.977 h -6.125 v -45.977 z"
         id="path18" />
      <path
         d="m 300.21,394.369 v 20.795 h -6.125 v -20.795 h -2.612 v -5.719 h 2.612 v -9.719 h 6.125 v 9.719 h 4.764 v 5.719 z"
         id="path20" />
      <path
         d="m 309.142,369.188 h 6.125 v 21.668 c 2.178,-1.959 4.583,-2.941 7.213,-2.941 2.994,0 5.39,0.975 7.187,2.914 1.526,1.689 2.288,4.383 2.288,8.086 v 16.25 h -6.125 v -15.678 c 0,-2.123 -0.378,-3.662 -1.129,-4.615 -0.753,-0.953 -1.966,-1.43 -3.635,-1.43 -2.142,0 -3.648,0.664 -4.518,1.988 -0.855,1.342 -1.28,3.646 -1.28,6.914 v 12.82 h -6.125 v -45.976 z"
         id="path22" />
    </g>
    <g
       id="g38"
       transform="translate(-33.055787,-197.68702)">
      <path
         fill="#0086d1"
         d="m 70.934,212.03 v 111.752 h 49.043 v 31.55 H 33.683 V 212.03 Z"
         id="path26" />
      <path
         fill="#0086d1"
         d="m 246.354,267.336 h 53.785 V 212.03 h 37.251 v 143.302 h -37.251 v -59.107 h -53.785 v 59.107 H 209.103 V 212.03 h 37.251 z"
         id="path28" />
      <path
         fill="#727171"
         d="m 428.289,212.03 v 111.752 h 44.661 v 31.55 H 391.039 V 212.03 Z"
         id="path30" />
      <path
         fill="#727171"
         d="m 564.178,257.834 h 34.59 v 97.498 h -34.59 v -10.834 c -7.349,9.252 -17.296,13.875 -29.838,13.875 -7.098,0 -13.622,-1.302 -19.577,-3.896 -5.955,-2.594 -11.148,-6.239 -15.583,-10.928 -4.438,-4.688 -7.889,-10.197 -10.357,-16.535 -2.472,-6.334 -3.708,-13.238 -3.708,-20.716 0,-6.968 1.204,-13.59 3.613,-19.861 2.403,-6.272 5.764,-11.75 10.071,-16.439 4.308,-4.688 9.436,-8.393 15.396,-11.119 5.952,-2.724 12.542,-4.086 19.764,-4.086 12.164,0 22.237,4.247 30.219,12.734 z m -43.331,48.464 c 0,3.168 0.567,6.114 1.71,8.837 1.14,2.727 2.689,5.102 4.656,7.127 1.961,2.029 4.305,3.611 7.032,4.752 2.723,1.141 5.669,1.711 8.837,1.711 3.041,0 5.92,-0.57 8.647,-1.711 2.723,-1.141 5.066,-2.723 7.033,-4.752 1.96,-2.025 3.543,-4.371 4.75,-7.031 1.205,-2.661 1.805,-5.512 1.805,-8.553 0,-3.041 -0.6,-5.922 -1.805,-8.648 -1.207,-2.722 -2.79,-5.099 -4.75,-7.126 -1.967,-2.025 -4.311,-3.612 -7.033,-4.751 -2.728,-1.141 -5.606,-1.711 -8.647,-1.711 -3.168,0 -6.114,0.57 -8.837,1.711 -2.728,1.14 -5.071,2.726 -7.032,4.751 -1.967,2.027 -3.517,4.342 -4.656,6.936 -1.143,2.599 -1.71,5.418 -1.71,8.458 z"
         id="path32" />
      <path
         fill="#727171"
         d="m 656.544,197.586 v 69.94 c 8.105,-8.487 18.246,-12.734 30.407,-12.734 7.222,0 13.842,1.362 19.861,4.086 6.018,2.727 11.148,6.399 15.395,11.023 4.245,4.626 7.569,10.074 9.979,16.345 2.406,6.272 3.611,12.957 3.611,20.051 0,7.222 -1.237,14.002 -3.706,20.335 -2.471,6.338 -5.925,11.85 -10.359,16.535 -4.438,4.688 -9.663,8.396 -15.678,11.119 -6.021,2.723 -12.516,4.086 -19.483,4.086 -12.669,0 -22.68,-4.623 -30.026,-13.875 v 10.834 H 622.144 V 197.586 Z m 43.33,109.281 c 0,-3.04 -0.569,-5.92 -1.709,-8.647 -1.14,-2.724 -2.726,-5.099 -4.751,-7.127 -2.028,-2.026 -4.369,-3.641 -7.032,-4.847 -2.66,-1.203 -5.577,-1.805 -8.742,-1.805 -3.041,0 -5.891,0.57 -8.554,1.711 -2.66,1.14 -4.972,2.726 -6.936,4.751 -1.966,2.027 -3.548,4.404 -4.753,7.126 -1.204,2.726 -1.804,5.607 -1.804,8.648 0,3.041 0.569,5.892 1.709,8.553 1.14,2.66 2.723,4.974 4.751,6.938 2.025,1.965 4.402,3.549 7.127,4.75 2.726,1.207 5.609,1.807 8.647,1.807 3.041,0 5.894,-0.57 8.554,-1.711 2.663,-1.141 4.972,-2.723 6.936,-4.752 1.963,-2.025 3.549,-4.371 4.753,-7.031 1.202,-2.662 1.804,-5.448 1.804,-8.364 z"
         id="path34" />
      <path
         fill="#727171"
         d="m 817.871,282.921 c -6.336,-3.293 -12.542,-4.941 -18.624,-4.941 -3.168,0 -5.733,0.634 -7.697,1.9 -1.966,1.268 -2.946,2.979 -2.946,5.131 0,1.141 0.159,2.062 0.476,2.756 0.315,0.698 1.013,1.364 2.09,1.996 1.075,0.636 2.663,1.206 4.753,1.711 2.088,0.507 4.846,1.14 8.268,1.9 9.504,1.901 16.596,5.292 21.284,10.168 4.688,4.879 7.035,11.118 7.035,18.72 0,5.703 -1.143,10.834 -3.422,15.396 -2.282,4.56 -5.45,8.394 -9.504,11.499 -4.057,3.105 -8.931,5.51 -14.632,7.221 -5.704,1.711 -11.976,2.566 -18.816,2.566 -13.18,0 -26.167,-3.735 -38.963,-11.214 l 12.545,-24.327 c 9.625,6.59 18.751,9.883 27.366,9.883 3.165,0 5.766,-0.694 7.794,-2.091 2.023,-1.392 3.038,-3.165 3.038,-5.321 0,-1.266 -0.159,-2.311 -0.473,-3.136 -0.318,-0.822 -0.982,-1.583 -1.995,-2.28 -1.016,-0.695 -2.504,-1.33 -4.467,-1.9 -1.967,-0.57 -4.532,-1.171 -7.697,-1.806 -10.644,-2.153 -18.087,-5.351 -22.332,-9.599 -4.246,-4.242 -6.366,-10.102 -6.366,-17.58 0,-5.446 1.013,-10.357 3.041,-14.729 2.026,-4.373 4.94,-8.078 8.742,-11.119 3.8,-3.041 8.392,-5.384 13.779,-7.031 5.383,-1.646 11.37,-2.471 17.96,-2.471 10.768,0 21.222,2.09 31.357,6.271 z"
         id="path36" />
    </g>
    <path
         fill="#0086d1"
         d="m 106.71121,16.427977 c -25.275996,0 -45.841997,20.564 -45.841997,45.842 0,25.278 20.566001,45.842003 45.841997,45.842003 25.278,0 45.844,-20.565003 45.844,-45.842003 0,-25.277 -20.566,-45.842 -45.844,-45.842 z m 0,84.779003 c -21.470996,0 -38.937997,-17.467003 -38.937997,-38.938003 0,-21.471 17.467001,-38.938 38.937997,-38.938 21.471,0 38.94,17.468 38.94,38.938 0,21.47 -17.47,38.938003 -38.94,38.938003 z"
         id="path40" />
    <g
       id="g44"
       transform="translate(-33.055787,-197.68702)">
      <path
         fill="#0086d1"
         d="m 141.082,257.129 8.783,10.617 0.285,-0.317 c 0.948,-1.032 1.843,-2.042 2.686,-3.033 0.843,-0.99 1.653,-1.99 2.432,-3 l 4.803,4.928 c -0.59,0.844 -1.364,1.823 -2.323,2.939 -0.958,1.116 -2.101,2.401 -3.427,3.854 l 9.035,11.153 h -9.162 l -4.866,-5.971 c -4.465,4.613 -9.109,6.919 -13.933,6.919 -4.318,0 -7.983,-1.379 -10.996,-4.139 -2.949,-2.78 -4.422,-6.213 -4.422,-10.299 0,-4.865 2.337,-8.91 7.014,-12.133 l 3.191,-2.18 c 0.042,-0.021 0.116,-0.074 0.222,-0.158 0.105,-0.084 0.252,-0.2 0.443,-0.349 -3.224,-3.433 -4.834,-6.813 -4.834,-10.141 0,-3.287 1.074,-5.96 3.222,-8.025 2.191,-2.065 5.012,-3.097 8.468,-3.097 3.349,0 6.119,1.001 8.309,3.002 2.19,2.001 3.287,4.529 3.287,7.582 0,2.107 -0.601,4.012 -1.801,5.719 -1.183,1.705 -3.32,3.75 -6.416,6.129 z m -5.845,4.139 -0.412,0.283 c -3.011,2.086 -5.065,3.761 -6.161,5.025 -1.075,1.263 -1.611,2.601 -1.611,4.012 0,2.023 0.81,3.877 2.432,5.561 1.685,1.622 3.539,2.433 5.561,2.433 2.844,0 6.119,-1.865 9.827,-5.593 z m 1.58,-9.32 0.6,-0.443 c 1.032,-0.779 1.885,-1.457 2.559,-2.038 0.674,-0.58 1.159,-1.068 1.453,-1.469 0.633,-0.779 0.949,-1.738 0.949,-2.875 0,-1.284 -0.432,-2.328 -1.296,-3.127 -0.863,-0.801 -2.021,-1.201 -3.474,-1.201 -1.328,0 -2.444,0.411 -3.349,1.232 -0.907,0.779 -1.36,1.779 -1.36,3.001 0,1.433 0.569,2.844 1.707,4.233 l 1.833,2.212 c 0.062,0.106 0.188,0.264 0.378,0.475 z"
         id="path42" />
    </g>
  </g>
</svg>
